<svg width="393" height="70"><defs id="SvgjsDefs1097"></defs><g id="SvgjsG1098" featurekey="root" fill="#000000"></g><g id="SvgjsG1099" featurekey="symbol1" fill="#ffffff" transform="matrix(1.4396775763937841,0,0,1.4396775763937841,-1.7909587465523398,-7.266628693865076)"><path d="M56.311,51.313H10.112l20.979-16.834h0l1.172-0.936c0.216-0.172,0.251-0.486,0.079-0.703  c-0.171-0.216-0.486-0.251-0.703-0.079l-1.172,0.936c0,0,0,0.001,0,0.001c0,0,0,0,0,0L9.19,50.771V13.188c0-0.276-0.224-0.5-0.5-0.5  s-0.5,0.224-0.5,0.5v38.625c0,0.022,0.01,0.041,0.013,0.063c0.004,0.035,0.009,0.068,0.021,0.102  c0.012,0.034,0.029,0.063,0.047,0.092c0.011,0.019,0.016,0.039,0.029,0.057c0.005,0.007,0.013,0.009,0.019,0.015  c0.036,0.041,0.079,0.072,0.126,0.1c0.014,0.009,0.026,0.021,0.041,0.027c0.063,0.028,0.131,0.046,0.205,0.046h47.621  c0.276,0,0.5-0.224,0.5-0.5S56.587,51.313,56.311,51.313z"></path><path d="M47.104,21.554c0.109,0,0.22-0.036,0.312-0.109l2.165-1.728c0.216-0.172,0.252-0.487,0.079-0.703  c-0.172-0.215-0.487-0.25-0.702-0.079l-2.165,1.728c-0.216,0.172-0.252,0.487-0.079,0.703C46.812,21.49,46.957,21.554,47.104,21.554  z"></path><path d="M42.774,25.011c0.109,0,0.22-0.036,0.312-0.109l2.165-1.728c0.216-0.172,0.252-0.487,0.079-0.703  c-0.172-0.215-0.487-0.25-0.702-0.079l-2.165,1.728c-0.216,0.172-0.252,0.487-0.079,0.703  C42.482,24.946,42.628,25.011,42.774,25.011z"></path><path d="M38.445,28.467c0.109,0,0.22-0.036,0.312-0.109l2.165-1.728c0.216-0.172,0.252-0.487,0.079-0.703  c-0.172-0.216-0.487-0.25-0.702-0.079l-2.165,1.728c-0.216,0.172-0.252,0.487-0.079,0.703  C38.153,28.403,38.299,28.467,38.445,28.467z"></path><path d="M34.116,31.924c0.109,0,0.22-0.036,0.312-0.109l2.165-1.728c0.216-0.172,0.252-0.487,0.079-0.703  c-0.172-0.215-0.486-0.251-0.702-0.079l-2.165,1.728c-0.216,0.172-0.252,0.487-0.079,0.703  C33.824,31.859,33.97,31.924,34.116,31.924z"></path><path d="M51.434,18.098c0.109,0,0.22-0.036,0.313-0.109l1.172-0.936c0.215-0.172,0.251-0.487,0.078-0.703  c-0.172-0.216-0.485-0.25-0.703-0.079l-1.172,0.936c-0.215,0.172-0.251,0.487-0.078,0.703  C51.142,18.033,51.287,18.098,51.434,18.098z"></path></g><g id="SvgjsG1100" featurekey="text1" fill="#ffffff" transform="matrix(4.087193375523676,0,0,4.087193375523676,96.48501315135044,-12.888284462073127)"><path d="M4.42 20 l-2.56 -10.9 l-1 0 l0.34 -2.32 l5.66 0 l-0.34 2.32 l-1.28 0 l1.46 7 c1.4 -2.3 3 -5.1 3.16 -7 l-1.24 0 l0.34 -2.32 l5.54 0 l-0.34 2.32 l-1.12 0 c-0.26 2.12 -1.38 4.74 -5.54 10.9 l-3.08 0 z M14.06 16.64 c0 -2.92 1.94 -6.26 4.98 -6.26 c1.14 0 1.7 0.46 2.08 1.22 l0.46 -0.94 l2.28 0 l-0.88 6 c-0.02 0.16 -0.04 0.38 -0.04 0.52 c0 0.42 0.16 0.54 0.42 0.54 c0.32 0 0.6 -0.18 0.6 -0.18 l-0.24 2.36 c-0.44 0.14 -1 0.22 -1.54 0.22 c-1.22 0 -2.08 -0.32 -2.08 -1.74 l-0.06 0 c-0.48 0.88 -1.56 1.9 -2.98 1.9 c-1.44 0 -3 -1.02 -3 -3.64 z M18.060000000000002 17.96 c0.98 0 2.22 -1.58 2.22 -3.8 c0 -1 -0.26 -1.46 -0.92 -1.46 c-1.46 0 -2.12 2.16 -2.12 3.74 c0 1.04 0.28 1.52 0.82 1.52 z M25.86 17.06 l0.56 -4.14 l-1.06 0 l0.32 -2.26 l4.1 0 l-0.84 5.94 c-0.02 0.2 -0.04 0.36 -0.04 0.5 c0 0.4 0.12 0.62 0.52 0.62 c0.36 0 0.64 -0.18 0.64 -0.18 l-0.24 2.36 c-0.48 0.14 -1 0.22 -1.54 0.22 c-1.9 0 -2.48 -1 -2.48 -2.3 c0 -0.24 0.02 -0.5 0.06 -0.76 z M26.64 7.4 c0 -0.98 0.84 -1.8 1.82 -1.8 s1.8 0.82 1.8 1.8 s-0.82 1.82 -1.8 1.82 s-1.82 -0.84 -1.82 -1.82 z M30.84 20 l0.32 -2.32 l1.38 0 l1.2 -8.58 l-1.4 0 l0.32 -2.32 l6.12 0 l-0.34 2.32 l-1.44 0 l-1.16 8.38 l3.36 0 l0.28 -2.04 l2.4 0 l-0.64 4.56 l-10.4 0 z M42.54 16.64 c0 -2.92 1.94 -6.26 4.98 -6.26 c1.14 0 1.7 0.46 2.08 1.22 l0.46 -0.94 l2.28 0 l-0.88 6 c-0.02 0.16 -0.04 0.38 -0.04 0.52 c0 0.42 0.16 0.54 0.42 0.54 c0.32 0 0.6 -0.18 0.6 -0.18 l-0.24 2.36 c-0.44 0.14 -1 0.22 -1.54 0.22 c-1.22 0 -2.08 -0.32 -2.08 -1.74 l-0.06 0 c-0.48 0.88 -1.56 1.9 -2.98 1.9 c-1.44 0 -3 -1.02 -3 -3.64 z M46.54 17.96 c0.98 0 2.22 -1.58 2.22 -3.8 c0 -1 -0.26 -1.46 -0.92 -1.46 c-1.46 0 -2.12 2.16 -2.12 3.74 c0 1.04 0.28 1.52 0.82 1.52 z M53.54 20 l1.7 -12.1 l-1.08 0 l0.32 -2.26 l4.18 0 l-0.66 4.7 l-0.24 1.24 l0.06 0.02 c0.58 -0.78 1.44 -1.22 2.48 -1.22 c1.84 0 3.22 1.34 3.22 3.72 c0 2.64 -1.68 6.18 -4.8 6.18 c-1.4 0 -2.16 -0.76 -2.4 -1.46 l-0.64 1.18 l-2.14 0 z M58.12 17.96 c1.52 0 2.2 -2.18 2.2 -3.74 c0 -1 -0.2 -1.52 -0.9 -1.52 c-1.32 0 -2.34 2.36 -2.34 3.64 c0 1.14 0.46 1.62 1.04 1.62 z M64.83999999999999 13.4 c0 -1.66 1.3 -3.02 4 -3.02 c1.74 0 3.72 0.58 3.72 2.12 c0 0.2 -0.04 0.44 -0.12 0.68 l-2.86 0.48 c0.02 -0.1 0.02 -0.22 0.02 -0.3 c0 -0.48 -0.22 -0.8 -0.82 -0.8 s-0.82 0.3 -0.82 0.72 c0 0.44 0.22 0.6 1.22 0.98 c1.04 0.4 2.82 1 2.82 2.98 c0 1.5 -1.02 3.04 -4.3 3.04 c-1.7 0 -3.72 -0.42 -3.72 -2.1 c0 -0.22 0.04 -0.44 0.1 -0.68 l2.74 -0.46 c-0.04 0.12 -0.04 0.22 -0.04 0.3 c0 0.48 0.38 0.74 1.1 0.74 c0.7 0 1.02 -0.24 1.02 -0.66 c0 -1.28 -4.06 -0.96 -4.06 -4.02 z"></path></g></svg>